<?xml version="1.0" encoding="UTF-8" standalone="no"?>
<svg
   id="Layer_4"
   enable-background="new 0 0 24 24"
   height="512"
   viewBox="0 0 24 24"
   width="512"
   version="1.1"
   sodipodi:docname="ringing.svg"
   inkscape:version="1.4.4 (dcaf3e7d9e, 2026-05-05)"
   xmlns:inkscape="http://www.inkscape.org/namespaces/inkscape"
   xmlns:sodipodi="http://sodipodi.sourceforge.net/DTD/sodipodi-0.dtd"
   xmlns="http://www.w3.org/2000/svg"
   xmlns:svg="http://www.w3.org/2000/svg">
  <defs
     id="defs4" />
  <sodipodi:namedview
     id="namedview4"
     pagecolor="#ffffff"
     bordercolor="#000000"
     borderopacity="0.25"
     inkscape:showpageshadow="2"
     inkscape:pageopacity="0.0"
     inkscape:pagecheckerboard="0"
     inkscape:deskcolor="#d1d1d1"
     inkscape:zoom="1.2226562"
     inkscape:cx="256"
     inkscape:cy="256"
     inkscape:window-width="1536"
     inkscape:window-height="872"
     inkscape:window-x="0"
     inkscape:window-y="0"
     inkscape:window-maximized="1"
     inkscape:current-layer="Layer_4" />
  <g
     id="g1"
     style="fill:#999999">
    <path
       d="m22 10.882c-.552 0-1-.448-1-1 0-2.805-1.092-5.441-3.075-7.425-.391-.391-.391-1.023 0-1.414s1.023-.391 1.414 0c2.361 2.361 3.661 5.5 3.661 8.839 0 .552-.448 1-1 1z"
       id="path1"
       style="fill:#999999" />
  </g>
  <g
     id="g2"
     style="fill:#999999">
    <path
       d="m2 10.882c-.552 0-1-.448-1-1 0-3.339 1.3-6.478 3.661-8.839.391-.391 1.023-.391 1.414 0s.391 1.023 0 1.414c-1.983 1.983-3.075 4.62-3.075 7.425 0 .552-.448 1-1 1z"
       id="path2"
       style="fill:#999999" />
  </g>
  <g
     id="g4"
     style="fill:#999999">
    <path
       d="m21.379 16.913c-1.512-1.278-2.379-3.146-2.379-5.125v-2.788c0-3.519-2.614-6.432-6-6.92v-1.08c0-.553-.448-1-1-1s-1 .447-1 1v1.08c-3.387.488-6 3.401-6 6.92v2.788c0 1.979-.867 3.847-2.388 5.133-.389.333-.612.817-.612 1.329 0 .965.785 1.75 1.75 1.75h16.5c.965 0 1.75-.785 1.75-1.75 0-.512-.223-.996-.621-1.337z"
       id="path3"
       style="fill:#999999" />
    <path
       d="m12 24c1.811 0 3.326-1.291 3.674-3h-7.348c.348 1.709 1.863 3 3.674 3z"
       id="path4"
       style="fill:#999999" />
  </g>
</svg>
