<?xml version="1.0" encoding="UTF-8" standalone="no"?>
<svg
   id="Monochrome"
   viewBox="0 0 24 24"
   version="1.1"
   sodipodi:docname="send.svg"
   inkscape:version="1.4.4 (dcaf3e7d9e, 2026-05-05)"
   xmlns:inkscape="http://www.inkscape.org/namespaces/inkscape"
   xmlns:sodipodi="http://sodipodi.sourceforge.net/DTD/sodipodi-0.dtd"
   xmlns="http://www.w3.org/2000/svg"
   xmlns:svg="http://www.w3.org/2000/svg">
  <defs
     id="defs1" />
  <sodipodi:namedview
     id="namedview1"
     pagecolor="#ffffff"
     bordercolor="#000000"
     borderopacity="0.25"
     inkscape:showpageshadow="2"
     inkscape:pageopacity="0.0"
     inkscape:pagecheckerboard="0"
     inkscape:deskcolor="#d1d1d1"
     inkscape:zoom="26.083333"
     inkscape:cx="12"
     inkscape:cy="12"
     inkscape:window-width="1536"
     inkscape:window-height="872"
     inkscape:window-x="0"
     inkscape:window-y="0"
     inkscape:window-maximized="1"
     inkscape:current-layer="Monochrome" />
  <path
     d="m22.63 2.78-3.76 17.47c-.08.38-.33.7-.68.87s-.75.17-1.11 0l-2.8-1.36s-3.58 2.59-4.31 2.93c-.14.07-.2.06-.3.06-.14 0-.29-.04-.41-.12-.21-.14-.34-.37-.34-.62v-5.31c-.01-.11 0-.22.06-.33t0 0s.01-.02.02-.03c.03-.05.06-.1.1-.15l9.21-10.08-11.45 9.42c-.09.09-.21.17-.34.2-.21.06-.44.02-.62-.1l-3.85-1.74c-.43-.21-.7-.63-.72-1.11-.01-.47.24-.91.66-1.14l18.8-10.23c.44-.24.96-.2 1.37.1.4.3.58.79.48 1.27z"
     fill="#021e38"
     id="path1"
     style="fill:#ffffff" />
</svg>
