<?xml version="1.0" encoding="UTF-8" standalone="no"?>
<svg
   height="512"
   viewBox="0 0 32 32"
   width="512"
   version="1.1"
   id="svg1"
   sodipodi:docname="setting.svg"
   inkscape:version="1.4.4 (dcaf3e7d9e, 2026-05-05)"
   xmlns:inkscape="http://www.inkscape.org/namespaces/inkscape"
   xmlns:sodipodi="http://sodipodi.sourceforge.net/DTD/sodipodi-0.dtd"
   xmlns="http://www.w3.org/2000/svg"
   xmlns:svg="http://www.w3.org/2000/svg">
  <defs
     id="defs1" />
  <sodipodi:namedview
     id="namedview1"
     pagecolor="#ffffff"
     bordercolor="#000000"
     borderopacity="0.25"
     inkscape:showpageshadow="2"
     inkscape:pageopacity="0.0"
     inkscape:pagecheckerboard="0"
     inkscape:deskcolor="#d1d1d1"
     inkscape:zoom="1.2226562"
     inkscape:cx="256"
     inkscape:cy="256"
     inkscape:window-width="1536"
     inkscape:window-height="872"
     inkscape:window-x="0"
     inkscape:window-y="0"
     inkscape:window-maximized="1"
     inkscape:current-layer="svg1" />
  <g
     id="Layer_2"
     data-name="Layer 2"
     style="fill:#ffffff">
    <path
       d="m29.21 11.84a3.92 3.92 0 0 1 -3.09-5.3 1.84 1.84 0 0 0 -.55-2.07 14.75 14.75 0 0 0 -4.4-2.55 1.85 1.85 0 0 0 -2.09.58 3.91 3.91 0 0 1 -6.16 0 1.85 1.85 0 0 0 -2.09-.58 14.82 14.82 0 0 0 -4.1 2.3 1.86 1.86 0 0 0 -.58 2.13 3.9 3.9 0 0 1 -3.25 5.36 1.85 1.85 0 0 0 -1.62 1.49 14.14 14.14 0 0 0 -.28 2.8 14.32 14.32 0 0 0 .19 2.35 1.85 1.85 0 0 0 1.63 1.55 3.9 3.9 0 0 1 3.18 5.51 1.82 1.82 0 0 0 .51 2.18 14.86 14.86 0 0 0 4.36 2.51 2 2 0 0 0 .63.11 1.84 1.84 0 0 0 1.5-.78 3.87 3.87 0 0 1 3.2-1.68 3.92 3.92 0 0 1 3.14 1.58 1.84 1.84 0 0 0 2.16.61 15 15 0 0 0 4-2.39 1.85 1.85 0 0 0 .54-2.11 3.9 3.9 0 0 1 3.13-5.39 1.85 1.85 0 0 0 1.57-1.52 14.5 14.5 0 0 0 .26-2.53 14.35 14.35 0 0 0 -.25-2.67 1.83 1.83 0 0 0 -1.54-1.49zm-8.21 4.16a5 5 0 1 1 -5-5 5 5 0 0 1 5 5z"
       id="path1"
       style="fill:#ffffff" />
  </g>
</svg>
